<mxfile host="app.diagrams.net" modified="2021-02-18T02:30:37.383Z" agent="5.0 (Windows NT 10.0; Win64; x64) AppleWebKit/537.36 (KHTML, like Gecko) Chrome/88.0.4324.96 Safari/537.36 Edg/88.0.705.56" etag="D0WC2t8i5gEets_B_cEZ" version="14.2.4" type="github">
  <diagram id="dWrynMrXY3iOCmZsu6RZ" name="Page-1">
    <mxGraphModel dx="1038" dy="580" grid="1" gridSize="10" guides="1" tooltips="1" connect="1" arrows="1" fold="1" page="1" pageScale="1" pageWidth="827" pageHeight="1169" math="0" shadow="0">
      <root>
        <mxCell id="0" />
        <mxCell id="1" parent="0" />
        <mxCell id="gdVy1tC-4KH8Y1Q-4GeL-72" value="" style="group" parent="1" vertex="1" connectable="0">
          <mxGeometry x="80" y="300" width="700" height="450" as="geometry" />
        </mxCell>
        <mxCell id="gdVy1tC-4KH8Y1Q-4GeL-2" value="&lt;div style=&quot;text-align: left&quot;&gt;&lt;span&gt;G034&lt;/span&gt;&lt;/div&gt;一覧表示" style="rounded=1;whiteSpace=wrap;html=1;" parent="gdVy1tC-4KH8Y1Q-4GeL-72" vertex="1">
          <mxGeometry x="190" y="180" width="120" height="60" as="geometry" />
        </mxCell>
        <mxCell id="gdVy1tC-4KH8Y1Q-4GeL-3" value="G035&lt;br&gt;承認" style="rounded=1;whiteSpace=wrap;html=1;" parent="gdVy1tC-4KH8Y1Q-4GeL-72" vertex="1">
          <mxGeometry x="470" y="270" width="120" height="60" as="geometry" />
        </mxCell>
        <mxCell id="gdVy1tC-4KH8Y1Q-4GeL-4" value="G036&lt;br&gt;管理" style="rounded=1;whiteSpace=wrap;html=1;" parent="gdVy1tC-4KH8Y1Q-4GeL-72" vertex="1">
          <mxGeometry x="470" y="360" width="120" height="60" as="geometry" />
        </mxCell>
        <mxCell id="gdVy1tC-4KH8Y1Q-4GeL-5" value="&lt;div style=&quot;text-align: left&quot;&gt;&lt;span&gt;G033&lt;/span&gt;&lt;/div&gt;取り消し" style="rounded=1;whiteSpace=wrap;html=1;" parent="gdVy1tC-4KH8Y1Q-4GeL-72" vertex="1">
          <mxGeometry x="470" y="180" width="120" height="60" as="geometry" />
        </mxCell>
        <mxCell id="gdVy1tC-4KH8Y1Q-4GeL-6" value="&lt;div style=&quot;text-align: left&quot;&gt;&lt;span&gt;G031&lt;/span&gt;&lt;/div&gt;休暇申請" style="rounded=1;whiteSpace=wrap;html=1;" parent="gdVy1tC-4KH8Y1Q-4GeL-72" vertex="1">
          <mxGeometry x="470" width="120" height="60" as="geometry" />
        </mxCell>
        <mxCell id="gdVy1tC-4KH8Y1Q-4GeL-13" style="edgeStyle=orthogonalEdgeStyle;rounded=0;orthogonalLoop=1;jettySize=auto;html=1;exitX=1;exitY=0.5;exitDx=0;exitDy=0;entryX=0;entryY=0.5;entryDx=0;entryDy=0;" parent="gdVy1tC-4KH8Y1Q-4GeL-72" source="gdVy1tC-4KH8Y1Q-4GeL-7" target="gdVy1tC-4KH8Y1Q-4GeL-2" edge="1">
          <mxGeometry relative="1" as="geometry" />
        </mxCell>
        <mxCell id="gdVy1tC-4KH8Y1Q-4GeL-7" value="&lt;div style=&quot;text-align: left&quot;&gt;&lt;span&gt;G002&lt;/span&gt;&lt;/div&gt;メイン画面" style="rounded=1;whiteSpace=wrap;html=1;" parent="gdVy1tC-4KH8Y1Q-4GeL-72" vertex="1">
          <mxGeometry y="180" width="120" height="60" as="geometry" />
        </mxCell>
        <mxCell id="gdVy1tC-4KH8Y1Q-4GeL-9" value="&lt;div style=&quot;text-align: left&quot;&gt;&lt;span&gt;G032&lt;/span&gt;&lt;/div&gt;休暇修正" style="rounded=1;whiteSpace=wrap;html=1;" parent="gdVy1tC-4KH8Y1Q-4GeL-72" vertex="1">
          <mxGeometry x="470" y="90" width="120" height="60" as="geometry" />
        </mxCell>
        <mxCell id="gdVy1tC-4KH8Y1Q-4GeL-14" value="休暇" style="text;html=1;align=center;verticalAlign=middle;resizable=0;points=[];autosize=1;" parent="gdVy1tC-4KH8Y1Q-4GeL-72" vertex="1">
          <mxGeometry x="120" y="210" width="40" height="20" as="geometry" />
        </mxCell>
        <mxCell id="gdVy1tC-4KH8Y1Q-4GeL-21" value="" style="endArrow=classic;html=1;entryX=0;entryY=0.5;entryDx=0;entryDy=0;" parent="gdVy1tC-4KH8Y1Q-4GeL-72" target="gdVy1tC-4KH8Y1Q-4GeL-6" edge="1">
          <mxGeometry width="50" height="50" relative="1" as="geometry">
            <mxPoint x="270" y="180" as="sourcePoint" />
            <mxPoint x="330" y="-30" as="targetPoint" />
            <Array as="points">
              <mxPoint x="270" y="150" />
              <mxPoint x="270" y="30" />
            </Array>
          </mxGeometry>
        </mxCell>
        <mxCell id="gdVy1tC-4KH8Y1Q-4GeL-28" value="休暇申請" style="text;html=1;align=center;verticalAlign=middle;resizable=0;points=[];autosize=1;" parent="gdVy1tC-4KH8Y1Q-4GeL-72" vertex="1">
          <mxGeometry x="210" y="160" width="60" height="20" as="geometry" />
        </mxCell>
        <mxCell id="gdVy1tC-4KH8Y1Q-4GeL-32" value="" style="endArrow=classic;html=1;entryX=0;entryY=0.5;entryDx=0;entryDy=0;" parent="gdVy1tC-4KH8Y1Q-4GeL-72" target="gdVy1tC-4KH8Y1Q-4GeL-9" edge="1">
          <mxGeometry width="50" height="50" relative="1" as="geometry">
            <mxPoint x="290" y="180" as="sourcePoint" />
            <mxPoint x="250" y="109.28932188134524" as="targetPoint" />
            <Array as="points">
              <mxPoint x="290" y="150" />
              <mxPoint x="290" y="120" />
            </Array>
          </mxGeometry>
        </mxCell>
        <mxCell id="gdVy1tC-4KH8Y1Q-4GeL-33" value="休暇修正" style="text;html=1;align=center;verticalAlign=middle;resizable=0;points=[];autosize=1;" parent="gdVy1tC-4KH8Y1Q-4GeL-72" vertex="1">
          <mxGeometry x="290" y="160" width="60" height="20" as="geometry" />
        </mxCell>
        <mxCell id="gdVy1tC-4KH8Y1Q-4GeL-34" value="" style="endArrow=classic;html=1;entryX=0;entryY=0.5;entryDx=0;entryDy=0;" parent="gdVy1tC-4KH8Y1Q-4GeL-72" source="gdVy1tC-4KH8Y1Q-4GeL-2" target="gdVy1tC-4KH8Y1Q-4GeL-5" edge="1">
          <mxGeometry width="50" height="50" relative="1" as="geometry">
            <mxPoint x="310" y="260" as="sourcePoint" />
            <mxPoint x="380.71067811865476" y="210" as="targetPoint" />
          </mxGeometry>
        </mxCell>
        <mxCell id="gdVy1tC-4KH8Y1Q-4GeL-35" value="取り消し" style="text;html=1;align=center;verticalAlign=middle;resizable=0;points=[];autosize=1;" parent="gdVy1tC-4KH8Y1Q-4GeL-72" vertex="1">
          <mxGeometry x="310" y="210" width="60" height="20" as="geometry" />
        </mxCell>
        <mxCell id="gdVy1tC-4KH8Y1Q-4GeL-37" value="" style="endArrow=classic;html=1;entryX=0;entryY=0.5;entryDx=0;entryDy=0;" parent="gdVy1tC-4KH8Y1Q-4GeL-72" target="gdVy1tC-4KH8Y1Q-4GeL-3" edge="1">
          <mxGeometry width="50" height="50" relative="1" as="geometry">
            <mxPoint x="290" y="240" as="sourcePoint" />
            <mxPoint x="250" y="310.71067811865476" as="targetPoint" />
            <Array as="points">
              <mxPoint x="290" y="300" />
              <mxPoint x="360" y="300" />
            </Array>
          </mxGeometry>
        </mxCell>
        <mxCell id="gdVy1tC-4KH8Y1Q-4GeL-38" value="" style="endArrow=classic;html=1;entryX=0;entryY=0.5;entryDx=0;entryDy=0;" parent="gdVy1tC-4KH8Y1Q-4GeL-72" target="gdVy1tC-4KH8Y1Q-4GeL-4" edge="1">
          <mxGeometry width="50" height="50" relative="1" as="geometry">
            <mxPoint x="270" y="240" as="sourcePoint" />
            <mxPoint x="250" y="310.71067811865476" as="targetPoint" />
            <Array as="points">
              <mxPoint x="270" y="390" />
              <mxPoint x="340" y="390" />
            </Array>
          </mxGeometry>
        </mxCell>
        <mxCell id="gdVy1tC-4KH8Y1Q-4GeL-39" value="承認" style="text;html=1;align=center;verticalAlign=middle;resizable=0;points=[];autosize=1;" parent="gdVy1tC-4KH8Y1Q-4GeL-72" vertex="1">
          <mxGeometry x="290" y="250" width="40" height="20" as="geometry" />
        </mxCell>
        <mxCell id="gdVy1tC-4KH8Y1Q-4GeL-40" value="管理" style="text;html=1;align=center;verticalAlign=middle;resizable=0;points=[];autosize=1;" parent="gdVy1tC-4KH8Y1Q-4GeL-72" vertex="1">
          <mxGeometry x="230" y="240" width="40" height="20" as="geometry" />
        </mxCell>
        <mxCell id="gdVy1tC-4KH8Y1Q-4GeL-44" value="" style="endArrow=classic;html=1;exitX=1;exitY=0.5;exitDx=0;exitDy=0;entryX=0.25;entryY=1;entryDx=0;entryDy=0;" parent="gdVy1tC-4KH8Y1Q-4GeL-72" source="gdVy1tC-4KH8Y1Q-4GeL-9" target="gdVy1tC-4KH8Y1Q-4GeL-2" edge="1">
          <mxGeometry width="50" height="50" relative="1" as="geometry">
            <mxPoint x="590" y="140" as="sourcePoint" />
            <mxPoint x="640" y="120" as="targetPoint" />
            <Array as="points">
              <mxPoint x="700" y="120" />
              <mxPoint x="700" y="450" />
              <mxPoint x="220" y="450" />
            </Array>
          </mxGeometry>
        </mxCell>
        <mxCell id="gdVy1tC-4KH8Y1Q-4GeL-46" value="休暇申請" style="text;html=1;align=center;verticalAlign=middle;resizable=0;points=[];autosize=1;" parent="gdVy1tC-4KH8Y1Q-4GeL-72" vertex="1">
          <mxGeometry x="590" y="10" width="60" height="20" as="geometry" />
        </mxCell>
        <mxCell id="gdVy1tC-4KH8Y1Q-4GeL-47" value="修正申請" style="text;html=1;align=center;verticalAlign=middle;resizable=0;points=[];autosize=1;" parent="gdVy1tC-4KH8Y1Q-4GeL-72" vertex="1">
          <mxGeometry x="590" y="100" width="60" height="20" as="geometry" />
        </mxCell>
        <mxCell id="gdVy1tC-4KH8Y1Q-4GeL-48" value="" style="endArrow=classic;html=1;exitX=1;exitY=0.5;exitDx=0;exitDy=0;" parent="gdVy1tC-4KH8Y1Q-4GeL-72" source="gdVy1tC-4KH8Y1Q-4GeL-5" edge="1">
          <mxGeometry width="50" height="50" relative="1" as="geometry">
            <mxPoint x="590" y="230" as="sourcePoint" />
            <mxPoint x="700" y="210" as="targetPoint" />
          </mxGeometry>
        </mxCell>
        <mxCell id="gdVy1tC-4KH8Y1Q-4GeL-49" value="取り消し申請" style="text;html=1;align=center;verticalAlign=middle;resizable=0;points=[];autosize=1;" parent="gdVy1tC-4KH8Y1Q-4GeL-72" vertex="1">
          <mxGeometry x="590" y="190" width="90" height="20" as="geometry" />
        </mxCell>
        <mxCell id="gdVy1tC-4KH8Y1Q-4GeL-54" value="一覧表示" style="text;html=1;align=center;verticalAlign=middle;resizable=0;points=[];autosize=1;" parent="gdVy1tC-4KH8Y1Q-4GeL-72" vertex="1">
          <mxGeometry x="550" y="330" width="60" height="20" as="geometry" />
        </mxCell>
        <mxCell id="gdVy1tC-4KH8Y1Q-4GeL-55" value="" style="endArrow=classic;html=1;exitX=0.5;exitY=1;exitDx=0;exitDy=0;" parent="gdVy1tC-4KH8Y1Q-4GeL-72" source="gdVy1tC-4KH8Y1Q-4GeL-4" edge="1">
          <mxGeometry width="50" height="50" relative="1" as="geometry">
            <mxPoint x="520" y="470" as="sourcePoint" />
            <mxPoint x="530" y="450" as="targetPoint" />
          </mxGeometry>
        </mxCell>
        <mxCell id="gdVy1tC-4KH8Y1Q-4GeL-57" value="承認、差し戻す" style="text;html=1;align=center;verticalAlign=middle;resizable=0;points=[];autosize=1;" parent="gdVy1tC-4KH8Y1Q-4GeL-72" vertex="1">
          <mxGeometry x="580" y="264" width="100" height="20" as="geometry" />
        </mxCell>
        <mxCell id="gdVy1tC-4KH8Y1Q-4GeL-59" value="" style="endArrow=classic;html=1;" parent="gdVy1tC-4KH8Y1Q-4GeL-72" edge="1">
          <mxGeometry width="50" height="50" relative="1" as="geometry">
            <mxPoint x="590" y="320" as="sourcePoint" />
            <mxPoint x="700" y="380" as="targetPoint" />
          </mxGeometry>
        </mxCell>
        <mxCell id="gdVy1tC-4KH8Y1Q-4GeL-60" value="一覧表示" style="text;html=1;align=center;verticalAlign=middle;resizable=0;points=[];autosize=1;" parent="gdVy1tC-4KH8Y1Q-4GeL-72" vertex="1">
          <mxGeometry x="470" y="420" width="60" height="20" as="geometry" />
        </mxCell>
        <mxCell id="gdVy1tC-4KH8Y1Q-4GeL-61" value="" style="endArrow=classic;html=1;exitX=1;exitY=0.25;exitDx=0;exitDy=0;entryX=0.993;entryY=0.617;entryDx=0;entryDy=0;entryPerimeter=0;" parent="gdVy1tC-4KH8Y1Q-4GeL-72" source="gdVy1tC-4KH8Y1Q-4GeL-3" target="gdVy1tC-4KH8Y1Q-4GeL-3" edge="1">
          <mxGeometry width="50" height="50" relative="1" as="geometry">
            <mxPoint x="590" y="320" as="sourcePoint" />
            <mxPoint x="640" y="270" as="targetPoint" />
            <Array as="points">
              <mxPoint x="610" y="285" />
              <mxPoint x="610" y="300" />
            </Array>
          </mxGeometry>
        </mxCell>
        <mxCell id="gdVy1tC-4KH8Y1Q-4GeL-66" value="" style="endArrow=classic;html=1;" parent="gdVy1tC-4KH8Y1Q-4GeL-72" source="gdVy1tC-4KH8Y1Q-4GeL-6" edge="1">
          <mxGeometry width="50" height="50" relative="1" as="geometry">
            <mxPoint x="590" y="80" as="sourcePoint" />
            <mxPoint x="700" y="130" as="targetPoint" />
            <Array as="points">
              <mxPoint x="700" y="30" />
            </Array>
          </mxGeometry>
        </mxCell>
        <mxCell id="gdVy1tC-4KH8Y1Q-4GeL-67" value="" style="endArrow=classic;html=1;entryX=1;entryY=0.75;entryDx=0;entryDy=0;" parent="gdVy1tC-4KH8Y1Q-4GeL-72" source="gdVy1tC-4KH8Y1Q-4GeL-4" target="gdVy1tC-4KH8Y1Q-4GeL-4" edge="1">
          <mxGeometry width="50" height="50" relative="1" as="geometry">
            <mxPoint x="580" y="420" as="sourcePoint" />
            <mxPoint x="630" y="370" as="targetPoint" />
          </mxGeometry>
        </mxCell>
        <mxCell id="gdVy1tC-4KH8Y1Q-4GeL-68" value="保存" style="text;html=1;align=center;verticalAlign=middle;resizable=0;points=[];autosize=1;" parent="gdVy1tC-4KH8Y1Q-4GeL-72" vertex="1">
          <mxGeometry x="590" y="360" width="40" height="20" as="geometry" />
        </mxCell>
        <mxCell id="gdVy1tC-4KH8Y1Q-4GeL-69" value="戻る" style="text;html=1;align=center;verticalAlign=middle;resizable=0;points=[];autosize=1;" parent="gdVy1tC-4KH8Y1Q-4GeL-72" vertex="1">
          <mxGeometry x="600" y="30" width="40" height="20" as="geometry" />
        </mxCell>
        <mxCell id="gdVy1tC-4KH8Y1Q-4GeL-70" value="戻る" style="text;html=1;align=center;verticalAlign=middle;resizable=0;points=[];autosize=1;" parent="gdVy1tC-4KH8Y1Q-4GeL-72" vertex="1">
          <mxGeometry x="600" y="120" width="40" height="20" as="geometry" />
        </mxCell>
        <mxCell id="gdVy1tC-4KH8Y1Q-4GeL-71" value="戻る" style="text;html=1;align=center;verticalAlign=middle;resizable=0;points=[];autosize=1;" parent="gdVy1tC-4KH8Y1Q-4GeL-72" vertex="1">
          <mxGeometry x="600" y="210" width="40" height="20" as="geometry" />
        </mxCell>
      </root>
    </mxGraphModel>
  </diagram>
</mxfile>
